<svg xmlns="http://www.w3.org/2000/svg" version="1.1" xmlns:xlink="http://www.w3.org/1999/xlink" xmlns:svgjs="http://svgjs.dev/svgjs" width="1500" height="253" viewBox="0 0 1500 253"><g transform="matrix(1,0,0,1,-0.9090909090909918,0.5644365178896891)"><svg viewBox="0 0 396 67" data-background-color="#293040" preserveAspectRatio="xMidYMid meet" height="253" width="1500" xmlns="http://www.w3.org/2000/svg" xmlns:xlink="http://www.w3.org/1999/xlink"><g id="tight-bounds" transform="matrix(1,0,0,1,0.2400000000000091,-0.14947528339371274)"><svg viewBox="0 0 395.52 67.29895056678743" height="67.29895056678743" width="395.52"><g><svg viewBox="0 0 395.52 67.29895056678743" height="67.29895056678743" width="395.52"><g><svg viewBox="0 0 395.52 67.29895056678743" height="67.29895056678743" width="395.52"><g id="textblocktransform"><svg viewBox="0 0 395.52 67.29895056678743" height="67.29895056678743" width="395.52" id="textblock"><g><svg viewBox="0 0 395.52 67.29895056678743" height="67.29895056678743" width="395.52"><g transform="matrix(1,0,0,1,0,0)"><svg width="395.52" viewBox="1.98 -35.55 208.89000000000001 35.55" height="67.29895056678743" data-palette-color="#ffb300"><path d="M14.75 0L1.98 0 1.98-3.08 5.96-3.76 5.96-31.76 1.98-32.45 1.98-35.55 28.71-35.55 28.71-27 24.85-27 24.32-31.81 10.77-31.81 10.77-19.51 23.78-19.51 23.78-15.72 10.77-15.72 10.77-3.76 14.75-3.08 14.75 0ZM58.25 0L32.64 0 32.64-3.08 36.62-3.76 36.62-31.76 32.64-32.45 32.64-35.55 36.62-35.55 41.43-35.55 45.41-35.55 45.41-32.45 41.43-31.76 41.43-3.69 54-3.69 54.56-9.3 58.25-9.3 58.25 0ZM89.25 0L62.18 0 62.18-3.08 66.16-3.76 66.16-31.76 62.18-32.45 62.18-35.55 88.5-35.55 88.5-27 84.64-27 84.1-31.84 70.97-31.84 70.97-20.26 84.08-20.26 84.08-16.48 70.97-16.48 70.97-3.61 84.88-3.61 85.42-8.52 89.25-8.52 89.25 0ZM105.66 0L94.04 0 94.04-3.08 97.11-3.61 108.12-18.04 97.92-31.91 94.82-32.45 94.82-35.55 106.34-35.55 106.34-32.45 103-32.13 110.86-21.17 118.33-32.13 114.91-32.45 114.91-35.55 126.51-35.55 126.51-32.45 123.26-31.91 113.62-18.04 124.31-3.61 127.46-3.08 127.46 0 115.79 0 115.79-3.08 119.23-3.39 110.81-14.94 102.41-3.39 105.66-3.08 105.66 0ZM144.16 0L131.39 0 131.39-3.08 135.37-3.76 135.37-31.76 131.39-32.45 131.39-35.55 144.16-35.55 144.16-32.45 140.18-31.76 140.18-3.76 144.16-3.08 144.16 0ZM160.88 0L148.11 0 148.11-3.08 152.09-3.76 152.09-31.76 148.11-32.45 148.11-35.55 174.84-35.55 174.84-27 170.98-27 170.45-31.81 156.9-31.81 156.9-19.51 169.91-19.51 169.91-15.72 156.9-15.72 156.9-3.76 160.88-3.08 160.88 0ZM201.01 0L188.27 0 188.27-3.08 192.25-3.76 192.25-12.94 181.31-31.98 178.38-32.45 178.38-35.55 190.63-35.55 190.63-32.45 186.58-31.98 194.13-18.02 194.64-17.07 194.66-17.11 195.15-18.02 203.06-31.98 198.86-32.45 198.86-35.55 210.87-35.55 210.87-32.45 207.77-31.98 197.03-13.31 197.03-3.76 201.01-3.08 201.01 0Z" opacity="1" transform="matrix(1,0,0,1,0,0)" fill="#ffb300" class="wordmark-text-0" data-fill-palette-color="primary" id="text-0"></path></svg></g></svg></g></svg></g></svg></g></svg></g><defs></defs></svg><rect width="395.52" height="67.29895056678743" fill="none" stroke="none" visibility="hidden"></rect></g></svg></g></svg>